<?xml version="1.0" standalone="no"?>
<!DOCTYPE svg PUBLIC "-//W3C//DTD SVG 20010904//EN"
 "http://www.w3.org/TR/2001/REC-SVG-20010904/DTD/svg10.dtd">
<svg version="1.0" xmlns="http://www.w3.org/2000/svg"
 width="196.000000pt" height="196.000000pt" viewBox="0 0 196.000000 196.000000"
 preserveAspectRatio="xMidYMid meet">
<metadata>
Created by potrace 1.14, written by Peter Selinger 2001-2017
</metadata>
<g transform="translate(0.000000,196.000000) scale(0.100000,-0.100000)"
fill="#000000" stroke="none">
<path d="M707 1942 c-23 -25 -21 -58 3 -82 27 -27 55 -25 79 7 46 58 -33 129
-82 75z"/>
<path d="M939 1939 c-20 -20 -20 -61 0 -82 18 -18 61 -17 81 3 25 25 26 54 0
80 -26 26 -55 25 -81 -1z"/>
<path d="M1174 1947 c-30 -35 -20 -90 19 -101 60 -15 105 63 55 98 -26 19 -59
20 -74 3z"/>
<path d="M705 1725 c-26 -25 -29 -35 -19 -71 6 -22 42 -44 70 -44 20 0 63 44
60 61 -7 40 -20 58 -48 68 -40 14 -35 15 -63 -14z"/>
<path d="M953 1740 c-46 -19 -55 -69 -18 -105 31 -32 59 -32 91 1 20 19 24 31
19 52 -11 46 -50 68 -92 52z"/>
<path d="M1184 1738 c-47 -22 -50 -93 -5 -117 30 -17 50 -13 76 14 29 29 32
55 8 84 -21 25 -50 32 -79 19z"/>
<path d="M695 1507 c-54 -46 -31 -130 38 -143 49 -8 97 31 97 79 -1 44 -28 76
-71 83 -28 5 -41 1 -64 -19z"/>
<path d="M937 1519 c-52 -31 -50 -116 4 -144 25 -13 37 -14 65 -5 39 13 54 35
54 80 0 59 -71 99 -123 69z"/>
<path d="M1180 1523 c-42 -15 -64 -88 -37 -124 48 -63 142 -38 152 40 7 58
-57 105 -115 84z"/>
<path d="M723 1312 c-12 -2 -34 -17 -48 -33 -43 -53 -28 -126 32 -154 41 -20
71 -14 110 19 23 20 28 32 28 70 0 32 -6 51 -20 66 -23 23 -69 38 -102 32z"/>
<path d="M943 1305 c-45 -19 -67 -57 -60 -102 15 -87 111 -118 168 -55 50 56
33 129 -37 158 -39 16 -31 17 -71 -1z"/>
<path d="M1170 1304 c-41 -17 -66 -72 -54 -115 23 -80 135 -100 179 -32 55 84
-32 186 -125 147z"/>
<path d="M467 1278 c-15 -12 -30 -37 -33 -55 -5 -27 -1 -37 24 -63 17 -16 40
-30 51 -30 76 0 116 80 69 134 -33 38 -78 44 -111 14z"/>
<path d="M1415 1291 c-11 -5 -28 -18 -39 -29 -38 -43 9 -132 70 -132 32 0 73
39 80 76 10 55 -58 107 -111 85z"/>
<path d="M40 1267 c-32 -16 -44 -39 -37 -69 11 -44 79 -55 103 -16 31 49 -16
110 -66 85z"/>
<path d="M235 1260 c-38 -42 -9 -110 47 -110 35 0 68 32 68 65 0 56 -77 86
-115 45z"/>
<path d="M1630 1260 c-11 -11 -20 -31 -20 -45 0 -56 77 -86 115 -45 56 62 -36
149 -95 90z"/>
<path d="M1856 1248 c-9 -12 -16 -28 -16 -34 0 -19 34 -55 55 -58 26 -5 65 31
65 59 0 51 -75 74 -104 33z"/>
<path d="M698 1067 c-42 -29 -61 -80 -44 -122 15 -39 74 -69 116 -60 36 8 80
58 80 91 0 38 -26 80 -57 92 -56 21 -62 21 -95 -1z"/>
<path d="M1171 1072 c-35 -17 -61 -57 -61 -96 0 -33 44 -83 79 -91 36 -8 95
16 110 43 45 85 -44 185 -128 144z"/>
<path d="M917 1060 c-15 -12 -29 -36 -33 -56 -21 -115 126 -172 181 -69 37 68
-8 145 -85 145 -22 0 -48 -8 -63 -20z"/>
<path d="M478 1056 c-77 -39 -49 -156 37 -156 44 0 85 39 85 81 0 59 -69 101
-122 75z"/>
<path d="M1413 1059 c-34 -12 -56 -54 -49 -90 15 -78 116 -96 151 -28 21 39
19 64 -7 93 -25 28 -62 38 -95 25z"/>
<path d="M243 1035 c-31 -21 -35 -62 -9 -91 30 -35 63 -38 92 -9 30 30 31 68
2 95 -26 24 -55 26 -85 5z"/>
<path d="M1649 1043 c-47 -12 -47 -96 0 -119 47 -24 111 26 94 73 -16 45 -45
60 -94 46z"/>
<path d="M17 1022 c-23 -25 -21 -58 3 -82 25 -25 41 -25 74 1 31 24 33 52 6
79 -25 25 -62 26 -83 2z"/>
<path d="M1866 1027 c-25 -18 -28 -62 -6 -82 27 -24 59 -26 80 -5 53 53 -15
130 -74 87z"/>
<path d="M681 819 c-24 -24 -31 -39 -31 -71 0 -111 159 -135 191 -28 31 101
-86 174 -160 99z"/>
<path d="M931 836 c-63 -35 -67 -120 -7 -168 49 -40 140 -6 152 57 16 88 -68
153 -145 111z"/>
<path d="M1163 838 c-25 -12 -53 -64 -53 -98 0 -36 62 -90 103 -90 94 0 134
121 60 180 -28 22 -75 25 -110 8z"/>
<path d="M472 820 c-81 -50 -27 -173 65 -148 84 23 82 133 -4 157 -24 7 -38 5
-61 -9z"/>
<path d="M1412 824 c-64 -26 -66 -114 -3 -146 38 -19 82 -9 105 24 16 23 14
81 -4 103 -21 25 -64 34 -98 19z"/>
<path d="M249 807 c-30 -23 -38 -50 -24 -83 26 -63 116 -46 123 23 5 51 -60
90 -99 60z"/>
<path d="M1652 810 c-34 -14 -48 -52 -32 -90 12 -29 21 -33 65 -33 32 1 34 2
49 31 12 23 12 32 1 60 -8 17 -18 32 -24 32 -5 0 -15 2 -23 4 -7 3 -23 1 -36
-4z"/>
<path d="M22 794 c-28 -19 -29 -57 -2 -84 26 -26 54 -25 80 2 25 28 26 52 0
78 -24 24 -48 25 -78 4z"/>
<path d="M1859 789 c-15 -15 -19 -28 -14 -47 13 -50 60 -67 95 -32 27 27 26
65 -2 84 -30 22 -54 20 -79 -5z"/>
<path d="M703 588 c-34 -16 -48 -69 -29 -106 28 -53 86 -64 126 -23 73 72 -4
174 -97 129z"/>
<path d="M926 578 c-28 -25 -34 -49 -23 -90 8 -30 52 -59 83 -53 10 2 22 4 26
4 21 3 48 48 48 82 0 69 -81 104 -134 57z"/>
<path d="M1155 575 c-34 -33 -34 -83 0 -115 46 -43 113 -28 134 32 29 82 -73
145 -134 83z"/>
<path d="M700 330 c-41 -41 -13 -110 45 -110 24 0 39 7 54 27 51 63 -41 141
-99 83z"/>
<path d="M938 337 c-48 -37 -16 -121 45 -115 37 4 72 46 62 77 -15 48 -69 67
-107 38z"/>
<path d="M1161 325 c-22 -29 -20 -58 5 -86 37 -41 114 -9 114 46 0 60 -81 87
-119 40z"/>
<path d="M712 104 c-25 -17 -30 -65 -9 -82 21 -18 61 -22 79 -9 26 21 30 65 7
88 -23 23 -47 24 -77 3z"/>
<path d="M939 99 c-20 -20 -20 -61 0 -82 18 -18 61 -17 81 3 25 25 26 54 0 80
-26 26 -55 25 -81 -1z"/>
<path d="M1178 108 c-27 -22 -30 -53 -7 -81 11 -15 28 -27 38 -27 30 0 61 30
61 59 0 49 -55 78 -92 49z"/>
</g>
</svg>
